<mxfile host="app.diagrams.net" modified="2020-09-18T02:22:06.057Z" agent="5.0 (Macintosh; Intel Mac OS X 10_15_6) AppleWebKit/605.1.15 (KHTML, like Gecko) Version/13.1.2 Safari/605.1.15" etag="0t1Vb8kmP7ugKqmSMsxd" version="13.7.3" type="github">
  <diagram id="C5RBs43oDa-KdzZeNtuy" name="practica luces 17/09/20">
    <mxGraphModel dx="786" dy="471" grid="1" gridSize="10" guides="1" tooltips="1" connect="1" arrows="1" fold="1" page="1" pageScale="1" pageWidth="827" pageHeight="1169" math="0" shadow="0">
      <root>
        <mxCell id="WIyWlLk6GJQsqaUBKTNV-0" />
        <mxCell id="WIyWlLk6GJQsqaUBKTNV-1" parent="WIyWlLk6GJQsqaUBKTNV-0" />
        <mxCell id="363ylHZ75aGxsUqMFSSx-0" style="edgeStyle=orthogonalEdgeStyle;rounded=0;orthogonalLoop=1;jettySize=auto;html=1;entryX=0;entryY=0.5;entryDx=0;entryDy=0;" edge="1" parent="WIyWlLk6GJQsqaUBKTNV-1" source="WIyWlLk6GJQsqaUBKTNV-3" target="WIyWlLk6GJQsqaUBKTNV-7">
          <mxGeometry relative="1" as="geometry" />
        </mxCell>
        <mxCell id="363ylHZ75aGxsUqMFSSx-76" style="edgeStyle=orthogonalEdgeStyle;rounded=0;orthogonalLoop=1;jettySize=auto;html=1;exitX=0.5;exitY=1;exitDx=0;exitDy=0;" edge="1" parent="WIyWlLk6GJQsqaUBKTNV-1" source="WIyWlLk6GJQsqaUBKTNV-3" target="363ylHZ75aGxsUqMFSSx-75">
          <mxGeometry relative="1" as="geometry" />
        </mxCell>
        <mxCell id="WIyWlLk6GJQsqaUBKTNV-3" value="&lt;b&gt;&lt;font style=&quot;font-size: 22px&quot;&gt;setup&lt;/font&gt;&lt;/b&gt;" style="rounded=1;whiteSpace=wrap;html=1;fontSize=12;glass=0;strokeWidth=1;shadow=0;strokeColor=#d79b00;fillColor=#ffe6cc;" parent="WIyWlLk6GJQsqaUBKTNV-1" vertex="1">
          <mxGeometry x="150" y="20" width="120" height="40" as="geometry" />
        </mxCell>
        <mxCell id="363ylHZ75aGxsUqMFSSx-77" style="edgeStyle=orthogonalEdgeStyle;rounded=0;orthogonalLoop=1;jettySize=auto;html=1;exitX=0.5;exitY=1;exitDx=0;exitDy=0;entryX=0.5;entryY=0;entryDx=0;entryDy=0;" edge="1" parent="WIyWlLk6GJQsqaUBKTNV-1" source="WIyWlLk6GJQsqaUBKTNV-7" target="363ylHZ75aGxsUqMFSSx-75">
          <mxGeometry relative="1" as="geometry" />
        </mxCell>
        <mxCell id="WIyWlLk6GJQsqaUBKTNV-7" value="&lt;b style=&quot;font-size: 15px&quot;&gt;declarar 10 pines&lt;/b&gt;" style="rounded=1;whiteSpace=wrap;html=1;fontSize=12;glass=0;strokeWidth=1;shadow=0;fillColor=#ffe6cc;strokeColor=#d79b00;" parent="WIyWlLk6GJQsqaUBKTNV-1" vertex="1">
          <mxGeometry x="400" y="20" width="120" height="40" as="geometry" />
        </mxCell>
        <mxCell id="363ylHZ75aGxsUqMFSSx-6" style="edgeStyle=orthogonalEdgeStyle;rounded=0;orthogonalLoop=1;jettySize=auto;html=1;exitX=1;exitY=0.5;exitDx=0;exitDy=0;entryX=0;entryY=0.5;entryDx=0;entryDy=0;" edge="1" parent="WIyWlLk6GJQsqaUBKTNV-1" source="WIyWlLk6GJQsqaUBKTNV-12" target="363ylHZ75aGxsUqMFSSx-4">
          <mxGeometry relative="1" as="geometry" />
        </mxCell>
        <mxCell id="WIyWlLk6GJQsqaUBKTNV-12" value="&lt;b&gt;&lt;font style=&quot;font-size: 15px&quot;&gt;Prender led &amp;nbsp;B5&lt;/font&gt;&lt;/b&gt;" style="rounded=1;whiteSpace=wrap;html=1;fontSize=12;glass=0;strokeWidth=1;shadow=0;fillColor=#ffe6cc;strokeColor=#d79b00;" parent="WIyWlLk6GJQsqaUBKTNV-1" vertex="1">
          <mxGeometry x="340" y="190" width="140" height="50" as="geometry" />
        </mxCell>
        <mxCell id="363ylHZ75aGxsUqMFSSx-5" style="edgeStyle=orthogonalEdgeStyle;rounded=0;orthogonalLoop=1;jettySize=auto;html=1;exitX=1;exitY=0.5;exitDx=0;exitDy=0;entryX=0;entryY=0.5;entryDx=0;entryDy=0;" edge="1" parent="WIyWlLk6GJQsqaUBKTNV-1" source="363ylHZ75aGxsUqMFSSx-1" target="WIyWlLk6GJQsqaUBKTNV-12">
          <mxGeometry relative="1" as="geometry" />
        </mxCell>
        <mxCell id="363ylHZ75aGxsUqMFSSx-17" style="edgeStyle=orthogonalEdgeStyle;rounded=0;orthogonalLoop=1;jettySize=auto;html=1;exitX=0.5;exitY=1;exitDx=0;exitDy=0;" edge="1" parent="WIyWlLk6GJQsqaUBKTNV-1" source="363ylHZ75aGxsUqMFSSx-1" target="363ylHZ75aGxsUqMFSSx-15">
          <mxGeometry relative="1" as="geometry" />
        </mxCell>
        <mxCell id="363ylHZ75aGxsUqMFSSx-1" value="&lt;b&gt;&lt;font style=&quot;font-size: 17px&quot;&gt;Prender led A1&lt;/font&gt;&lt;/b&gt;" style="rounded=1;whiteSpace=wrap;html=1;strokeColor=#d79b00;fillColor=#ffe6cc;" vertex="1" parent="WIyWlLk6GJQsqaUBKTNV-1">
          <mxGeometry x="160" y="190" width="120" height="50" as="geometry" />
        </mxCell>
        <mxCell id="363ylHZ75aGxsUqMFSSx-44" style="edgeStyle=orthogonalEdgeStyle;rounded=0;orthogonalLoop=1;jettySize=auto;html=1;exitX=0.5;exitY=1;exitDx=0;exitDy=0;entryX=0.5;entryY=0;entryDx=0;entryDy=0;" edge="1" parent="WIyWlLk6GJQsqaUBKTNV-1" source="363ylHZ75aGxsUqMFSSx-4" target="363ylHZ75aGxsUqMFSSx-15">
          <mxGeometry relative="1" as="geometry" />
        </mxCell>
        <mxCell id="363ylHZ75aGxsUqMFSSx-4" value="&lt;b style=&quot;font-size: 15px&quot;&gt;Esperar 1 seg&lt;/b&gt;" style="rounded=1;whiteSpace=wrap;html=1;strokeColor=#d79b00;fillColor=#ffe6cc;" vertex="1" parent="WIyWlLk6GJQsqaUBKTNV-1">
          <mxGeometry x="530" y="190" width="140" height="50" as="geometry" />
        </mxCell>
        <mxCell id="363ylHZ75aGxsUqMFSSx-22" style="edgeStyle=orthogonalEdgeStyle;rounded=0;orthogonalLoop=1;jettySize=auto;html=1;exitX=0.5;exitY=1;exitDx=0;exitDy=0;entryX=0.5;entryY=0;entryDx=0;entryDy=0;" edge="1" parent="WIyWlLk6GJQsqaUBKTNV-1" source="363ylHZ75aGxsUqMFSSx-7" target="363ylHZ75aGxsUqMFSSx-10">
          <mxGeometry relative="1" as="geometry" />
        </mxCell>
        <mxCell id="363ylHZ75aGxsUqMFSSx-58" style="edgeStyle=orthogonalEdgeStyle;rounded=0;orthogonalLoop=1;jettySize=auto;html=1;exitX=1;exitY=0.5;exitDx=0;exitDy=0;entryX=0;entryY=0.5;entryDx=0;entryDy=0;" edge="1" parent="WIyWlLk6GJQsqaUBKTNV-1" source="363ylHZ75aGxsUqMFSSx-7" target="363ylHZ75aGxsUqMFSSx-32">
          <mxGeometry relative="1" as="geometry" />
        </mxCell>
        <mxCell id="363ylHZ75aGxsUqMFSSx-7" value="&lt;b&gt;&lt;font style=&quot;font-size: 16px&quot;&gt;Apagar led &amp;nbsp;B5&lt;/font&gt;&lt;/b&gt;" style="rounded=1;whiteSpace=wrap;html=1;strokeColor=#d79b00;fillColor=#ffe6cc;" vertex="1" parent="WIyWlLk6GJQsqaUBKTNV-1">
          <mxGeometry x="160" y="770" width="120" height="60" as="geometry" />
        </mxCell>
        <mxCell id="363ylHZ75aGxsUqMFSSx-70" style="edgeStyle=orthogonalEdgeStyle;rounded=0;orthogonalLoop=1;jettySize=auto;html=1;exitX=1;exitY=0.5;exitDx=0;exitDy=0;entryX=0;entryY=0.5;entryDx=0;entryDy=0;" edge="1" parent="WIyWlLk6GJQsqaUBKTNV-1" source="363ylHZ75aGxsUqMFSSx-8" target="363ylHZ75aGxsUqMFSSx-36">
          <mxGeometry relative="1" as="geometry" />
        </mxCell>
        <mxCell id="363ylHZ75aGxsUqMFSSx-73" style="edgeStyle=orthogonalEdgeStyle;rounded=0;orthogonalLoop=1;jettySize=auto;html=1;exitX=0.5;exitY=1;exitDx=0;exitDy=0;" edge="1" parent="WIyWlLk6GJQsqaUBKTNV-1" source="363ylHZ75aGxsUqMFSSx-8">
          <mxGeometry relative="1" as="geometry">
            <mxPoint x="220" y="1320" as="targetPoint" />
          </mxGeometry>
        </mxCell>
        <mxCell id="363ylHZ75aGxsUqMFSSx-8" value="&lt;b style=&quot;color: rgb(0 , 0 , 0) ; font-family: &amp;#34;helvetica&amp;#34; ; font-size: 12px ; font-style: normal ; letter-spacing: normal ; text-align: center ; text-indent: 0px ; text-transform: none ; word-spacing: 0px ; text-decoration: none&quot;&gt;&lt;font style=&quot;font-size: 16px&quot;&gt;Apagar led &amp;nbsp;B1&lt;/font&gt;&lt;/b&gt;" style="rounded=1;whiteSpace=wrap;html=1;strokeColor=#d79b00;fillColor=#ffe6cc;" vertex="1" parent="WIyWlLk6GJQsqaUBKTNV-1">
          <mxGeometry x="160" y="1220" width="120" height="60" as="geometry" />
        </mxCell>
        <mxCell id="363ylHZ75aGxsUqMFSSx-24" style="edgeStyle=orthogonalEdgeStyle;rounded=0;orthogonalLoop=1;jettySize=auto;html=1;exitX=0.5;exitY=1;exitDx=0;exitDy=0;entryX=0.5;entryY=0;entryDx=0;entryDy=0;" edge="1" parent="WIyWlLk6GJQsqaUBKTNV-1" source="363ylHZ75aGxsUqMFSSx-9" target="363ylHZ75aGxsUqMFSSx-11">
          <mxGeometry relative="1" as="geometry" />
        </mxCell>
        <mxCell id="363ylHZ75aGxsUqMFSSx-61" value="" style="edgeStyle=orthogonalEdgeStyle;rounded=0;orthogonalLoop=1;jettySize=auto;html=1;" edge="1" parent="WIyWlLk6GJQsqaUBKTNV-1" source="363ylHZ75aGxsUqMFSSx-9" target="363ylHZ75aGxsUqMFSSx-28">
          <mxGeometry relative="1" as="geometry" />
        </mxCell>
        <mxCell id="363ylHZ75aGxsUqMFSSx-9" value="&lt;b style=&quot;color: rgb(0 , 0 , 0) ; font-family: &amp;#34;helvetica&amp;#34; ; font-size: 12px ; font-style: normal ; letter-spacing: normal ; text-align: center ; text-indent: 0px ; text-transform: none ; word-spacing: 0px ; text-decoration: none&quot;&gt;&lt;font style=&quot;font-size: 16px&quot;&gt;Apagar led &amp;nbsp;B4&lt;/font&gt;&lt;/b&gt;" style="rounded=1;whiteSpace=wrap;html=1;strokeColor=#d79b00;fillColor=#ffe6cc;" vertex="1" parent="WIyWlLk6GJQsqaUBKTNV-1">
          <mxGeometry x="160" y="890" width="120" height="60" as="geometry" />
        </mxCell>
        <mxCell id="363ylHZ75aGxsUqMFSSx-64" style="edgeStyle=orthogonalEdgeStyle;rounded=0;orthogonalLoop=1;jettySize=auto;html=1;exitX=1;exitY=0.5;exitDx=0;exitDy=0;entryX=0;entryY=0.5;entryDx=0;entryDy=0;" edge="1" parent="WIyWlLk6GJQsqaUBKTNV-1" source="363ylHZ75aGxsUqMFSSx-10" target="363ylHZ75aGxsUqMFSSx-38">
          <mxGeometry relative="1" as="geometry" />
        </mxCell>
        <mxCell id="363ylHZ75aGxsUqMFSSx-10" value="&lt;b style=&quot;color: rgb(0 , 0 , 0) ; font-family: &amp;#34;helvetica&amp;#34; ; font-size: 12px ; font-style: normal ; letter-spacing: normal ; text-align: center ; text-indent: 0px ; text-transform: none ; word-spacing: 0px ; text-decoration: none&quot;&gt;&lt;font style=&quot;font-size: 16px&quot;&gt;Apagar led &amp;nbsp;B3&lt;/font&gt;&lt;/b&gt;" style="rounded=1;whiteSpace=wrap;html=1;strokeColor=#d79b00;fillColor=#ffe6cc;" vertex="1" parent="WIyWlLk6GJQsqaUBKTNV-1">
          <mxGeometry x="160" y="1000" width="120" height="60" as="geometry" />
        </mxCell>
        <mxCell id="363ylHZ75aGxsUqMFSSx-25" style="edgeStyle=orthogonalEdgeStyle;rounded=0;orthogonalLoop=1;jettySize=auto;html=1;exitX=0.5;exitY=1;exitDx=0;exitDy=0;entryX=0.5;entryY=0;entryDx=0;entryDy=0;" edge="1" parent="WIyWlLk6GJQsqaUBKTNV-1" source="363ylHZ75aGxsUqMFSSx-11" target="363ylHZ75aGxsUqMFSSx-8">
          <mxGeometry relative="1" as="geometry" />
        </mxCell>
        <mxCell id="363ylHZ75aGxsUqMFSSx-67" style="edgeStyle=orthogonalEdgeStyle;rounded=0;orthogonalLoop=1;jettySize=auto;html=1;exitX=1;exitY=0.5;exitDx=0;exitDy=0;entryX=0;entryY=0.5;entryDx=0;entryDy=0;" edge="1" parent="WIyWlLk6GJQsqaUBKTNV-1" source="363ylHZ75aGxsUqMFSSx-11" target="363ylHZ75aGxsUqMFSSx-35">
          <mxGeometry relative="1" as="geometry" />
        </mxCell>
        <mxCell id="363ylHZ75aGxsUqMFSSx-11" value="&lt;b style=&quot;color: rgb(0 , 0 , 0) ; font-family: &amp;#34;helvetica&amp;#34; ; font-size: 12px ; font-style: normal ; letter-spacing: normal ; text-align: center ; text-indent: 0px ; text-transform: none ; word-spacing: 0px ; text-decoration: none&quot;&gt;&lt;font style=&quot;font-size: 16px&quot;&gt;Apagar led &amp;nbsp;B2&lt;/font&gt;&lt;/b&gt;" style="rounded=1;whiteSpace=wrap;html=1;strokeColor=#d79b00;fillColor=#ffe6cc;" vertex="1" parent="WIyWlLk6GJQsqaUBKTNV-1">
          <mxGeometry x="160" y="1109" width="120" height="60" as="geometry" />
        </mxCell>
        <mxCell id="363ylHZ75aGxsUqMFSSx-21" style="edgeStyle=orthogonalEdgeStyle;rounded=0;orthogonalLoop=1;jettySize=auto;html=1;exitX=0.5;exitY=1;exitDx=0;exitDy=0;entryX=0.5;entryY=0;entryDx=0;entryDy=0;" edge="1" parent="WIyWlLk6GJQsqaUBKTNV-1" source="363ylHZ75aGxsUqMFSSx-12" target="363ylHZ75aGxsUqMFSSx-7">
          <mxGeometry relative="1" as="geometry" />
        </mxCell>
        <mxCell id="363ylHZ75aGxsUqMFSSx-55" style="edgeStyle=orthogonalEdgeStyle;rounded=0;orthogonalLoop=1;jettySize=auto;html=1;exitX=1;exitY=0.5;exitDx=0;exitDy=0;entryX=0;entryY=0.5;entryDx=0;entryDy=0;" edge="1" parent="WIyWlLk6GJQsqaUBKTNV-1" source="363ylHZ75aGxsUqMFSSx-12" target="363ylHZ75aGxsUqMFSSx-29">
          <mxGeometry relative="1" as="geometry" />
        </mxCell>
        <mxCell id="363ylHZ75aGxsUqMFSSx-12" value="&lt;b&gt;&lt;font style=&quot;font-size: 16px&quot;&gt;Prender led A5&lt;/font&gt;&lt;/b&gt;" style="rounded=1;whiteSpace=wrap;html=1;strokeColor=#d79b00;fillColor=#ffe6cc;" vertex="1" parent="WIyWlLk6GJQsqaUBKTNV-1">
          <mxGeometry x="160" y="640" width="120" height="60" as="geometry" />
        </mxCell>
        <mxCell id="363ylHZ75aGxsUqMFSSx-20" style="edgeStyle=orthogonalEdgeStyle;rounded=0;orthogonalLoop=1;jettySize=auto;html=1;exitX=0.5;exitY=1;exitDx=0;exitDy=0;entryX=0.5;entryY=0;entryDx=0;entryDy=0;" edge="1" parent="WIyWlLk6GJQsqaUBKTNV-1" source="363ylHZ75aGxsUqMFSSx-13" target="363ylHZ75aGxsUqMFSSx-12">
          <mxGeometry relative="1" as="geometry" />
        </mxCell>
        <mxCell id="363ylHZ75aGxsUqMFSSx-52" style="edgeStyle=orthogonalEdgeStyle;rounded=0;orthogonalLoop=1;jettySize=auto;html=1;exitX=1;exitY=0.5;exitDx=0;exitDy=0;entryX=0;entryY=0.5;entryDx=0;entryDy=0;" edge="1" parent="WIyWlLk6GJQsqaUBKTNV-1" source="363ylHZ75aGxsUqMFSSx-13" target="363ylHZ75aGxsUqMFSSx-33">
          <mxGeometry relative="1" as="geometry" />
        </mxCell>
        <mxCell id="363ylHZ75aGxsUqMFSSx-13" value="&lt;b&gt;&lt;font style=&quot;font-size: 16px&quot;&gt;Prender led A4&lt;/font&gt;&lt;/b&gt;" style="rounded=1;whiteSpace=wrap;html=1;strokeColor=#d79b00;fillColor=#ffe6cc;" vertex="1" parent="WIyWlLk6GJQsqaUBKTNV-1">
          <mxGeometry x="160" y="520" width="120" height="60" as="geometry" />
        </mxCell>
        <mxCell id="363ylHZ75aGxsUqMFSSx-19" style="edgeStyle=orthogonalEdgeStyle;rounded=0;orthogonalLoop=1;jettySize=auto;html=1;exitX=0.5;exitY=1;exitDx=0;exitDy=0;entryX=0.5;entryY=0;entryDx=0;entryDy=0;" edge="1" parent="WIyWlLk6GJQsqaUBKTNV-1" source="363ylHZ75aGxsUqMFSSx-14" target="363ylHZ75aGxsUqMFSSx-13">
          <mxGeometry relative="1" as="geometry" />
        </mxCell>
        <mxCell id="363ylHZ75aGxsUqMFSSx-49" style="edgeStyle=orthogonalEdgeStyle;rounded=0;orthogonalLoop=1;jettySize=auto;html=1;exitX=1;exitY=0.5;exitDx=0;exitDy=0;" edge="1" parent="WIyWlLk6GJQsqaUBKTNV-1" source="363ylHZ75aGxsUqMFSSx-14" target="363ylHZ75aGxsUqMFSSx-31">
          <mxGeometry relative="1" as="geometry" />
        </mxCell>
        <mxCell id="363ylHZ75aGxsUqMFSSx-14" value="&lt;b&gt;&lt;font style=&quot;font-size: 16px&quot;&gt;Prender led A3&lt;/font&gt;&lt;/b&gt;" style="rounded=1;whiteSpace=wrap;html=1;strokeColor=#d79b00;fillColor=#ffe6cc;" vertex="1" parent="WIyWlLk6GJQsqaUBKTNV-1">
          <mxGeometry x="160" y="410" width="120" height="60" as="geometry" />
        </mxCell>
        <mxCell id="363ylHZ75aGxsUqMFSSx-18" style="edgeStyle=orthogonalEdgeStyle;rounded=0;orthogonalLoop=1;jettySize=auto;html=1;exitX=0.5;exitY=1;exitDx=0;exitDy=0;entryX=0.5;entryY=0;entryDx=0;entryDy=0;" edge="1" parent="WIyWlLk6GJQsqaUBKTNV-1" source="363ylHZ75aGxsUqMFSSx-15" target="363ylHZ75aGxsUqMFSSx-14">
          <mxGeometry relative="1" as="geometry">
            <mxPoint x="220" y="340" as="targetPoint" />
          </mxGeometry>
        </mxCell>
        <mxCell id="363ylHZ75aGxsUqMFSSx-46" style="edgeStyle=orthogonalEdgeStyle;rounded=0;orthogonalLoop=1;jettySize=auto;html=1;exitX=1;exitY=0.5;exitDx=0;exitDy=0;entryX=0;entryY=0.5;entryDx=0;entryDy=0;" edge="1" parent="WIyWlLk6GJQsqaUBKTNV-1" source="363ylHZ75aGxsUqMFSSx-15" target="363ylHZ75aGxsUqMFSSx-34">
          <mxGeometry relative="1" as="geometry" />
        </mxCell>
        <mxCell id="363ylHZ75aGxsUqMFSSx-15" value="&lt;b&gt;&lt;font style=&quot;font-size: 16px&quot;&gt;Prender led A2&lt;/font&gt;&lt;/b&gt;" style="rounded=1;whiteSpace=wrap;html=1;strokeColor=#d79b00;fillColor=#ffe6cc;" vertex="1" parent="WIyWlLk6GJQsqaUBKTNV-1">
          <mxGeometry x="160" y="300" width="120" height="60" as="geometry" />
        </mxCell>
        <mxCell id="363ylHZ75aGxsUqMFSSx-54" style="edgeStyle=orthogonalEdgeStyle;rounded=0;orthogonalLoop=1;jettySize=auto;html=1;exitX=0.5;exitY=1;exitDx=0;exitDy=0;entryX=0.5;entryY=0;entryDx=0;entryDy=0;" edge="1" parent="WIyWlLk6GJQsqaUBKTNV-1" source="363ylHZ75aGxsUqMFSSx-26" target="363ylHZ75aGxsUqMFSSx-12">
          <mxGeometry relative="1" as="geometry" />
        </mxCell>
        <mxCell id="363ylHZ75aGxsUqMFSSx-26" value="&lt;b style=&quot;color: rgb(0, 0, 0); font-family: helvetica; font-style: normal; letter-spacing: normal; text-align: center; text-indent: 0px; text-transform: none; word-spacing: 0px; text-decoration: none; font-size: 15px;&quot;&gt;Esperar 1 seg&lt;/b&gt;" style="rounded=1;whiteSpace=wrap;html=1;strokeColor=#d79b00;fillColor=#ffe6cc;" vertex="1" parent="WIyWlLk6GJQsqaUBKTNV-1">
          <mxGeometry x="540" y="520" width="120" height="60" as="geometry" />
        </mxCell>
        <mxCell id="363ylHZ75aGxsUqMFSSx-51" style="edgeStyle=orthogonalEdgeStyle;rounded=0;orthogonalLoop=1;jettySize=auto;html=1;exitX=0.5;exitY=1;exitDx=0;exitDy=0;entryX=0.5;entryY=0;entryDx=0;entryDy=0;" edge="1" parent="WIyWlLk6GJQsqaUBKTNV-1" source="363ylHZ75aGxsUqMFSSx-27" target="363ylHZ75aGxsUqMFSSx-13">
          <mxGeometry relative="1" as="geometry" />
        </mxCell>
        <mxCell id="363ylHZ75aGxsUqMFSSx-27" value="&lt;b style=&quot;color: rgb(0, 0, 0); font-family: helvetica; font-style: normal; letter-spacing: normal; text-align: center; text-indent: 0px; text-transform: none; word-spacing: 0px; text-decoration: none; font-size: 15px;&quot;&gt;Esperar 1 seg&lt;/b&gt;" style="rounded=1;whiteSpace=wrap;html=1;strokeColor=#d79b00;fillColor=#ffe6cc;" vertex="1" parent="WIyWlLk6GJQsqaUBKTNV-1">
          <mxGeometry x="540" y="410" width="120" height="60" as="geometry" />
        </mxCell>
        <mxCell id="363ylHZ75aGxsUqMFSSx-62" style="edgeStyle=orthogonalEdgeStyle;rounded=0;orthogonalLoop=1;jettySize=auto;html=1;exitX=1;exitY=0.5;exitDx=0;exitDy=0;entryX=0;entryY=0.5;entryDx=0;entryDy=0;" edge="1" parent="WIyWlLk6GJQsqaUBKTNV-1" source="363ylHZ75aGxsUqMFSSx-28" target="363ylHZ75aGxsUqMFSSx-43">
          <mxGeometry relative="1" as="geometry" />
        </mxCell>
        <mxCell id="363ylHZ75aGxsUqMFSSx-28" value="&lt;b style=&quot;color: rgb(0 , 0 , 0) ; font-family: &amp;#34;helvetica&amp;#34; ; font-size: 12px ; font-style: normal ; letter-spacing: normal ; text-align: center ; text-indent: 0px ; text-transform: none ; word-spacing: 0px ; text-decoration: none&quot;&gt;&lt;font style=&quot;font-size: 16px&quot;&gt;Prender led A2&lt;/font&gt;&lt;/b&gt;" style="rounded=1;whiteSpace=wrap;html=1;strokeColor=#d79b00;fillColor=#ffe6cc;" vertex="1" parent="WIyWlLk6GJQsqaUBKTNV-1">
          <mxGeometry x="340" y="890" width="120" height="60" as="geometry" />
        </mxCell>
        <mxCell id="363ylHZ75aGxsUqMFSSx-56" style="edgeStyle=orthogonalEdgeStyle;rounded=0;orthogonalLoop=1;jettySize=auto;html=1;exitX=1;exitY=0.5;exitDx=0;exitDy=0;entryX=0;entryY=0.5;entryDx=0;entryDy=0;" edge="1" parent="WIyWlLk6GJQsqaUBKTNV-1" source="363ylHZ75aGxsUqMFSSx-29" target="363ylHZ75aGxsUqMFSSx-40">
          <mxGeometry relative="1" as="geometry" />
        </mxCell>
        <mxCell id="363ylHZ75aGxsUqMFSSx-29" value="&lt;b style=&quot;color: rgb(0 , 0 , 0) ; font-family: &amp;#34;helvetica&amp;#34; ; font-size: 12px ; font-style: normal ; letter-spacing: normal ; text-align: center ; text-indent: 0px ; text-transform: none ; word-spacing: 0px ; text-decoration: none&quot;&gt;&lt;font style=&quot;font-size: 16px&quot;&gt;Prender led B1&lt;/font&gt;&lt;/b&gt;" style="rounded=1;whiteSpace=wrap;html=1;strokeColor=#d79b00;fillColor=#ffe6cc;" vertex="1" parent="WIyWlLk6GJQsqaUBKTNV-1">
          <mxGeometry x="340" y="640" width="120" height="60" as="geometry" />
        </mxCell>
        <mxCell id="363ylHZ75aGxsUqMFSSx-48" style="edgeStyle=orthogonalEdgeStyle;rounded=0;orthogonalLoop=1;jettySize=auto;html=1;exitX=0.5;exitY=1;exitDx=0;exitDy=0;" edge="1" parent="WIyWlLk6GJQsqaUBKTNV-1" source="363ylHZ75aGxsUqMFSSx-30">
          <mxGeometry relative="1" as="geometry">
            <mxPoint x="220" y="410" as="targetPoint" />
          </mxGeometry>
        </mxCell>
        <mxCell id="363ylHZ75aGxsUqMFSSx-30" value="&lt;b style=&quot;color: rgb(0, 0, 0); font-family: helvetica; font-style: normal; letter-spacing: normal; text-align: center; text-indent: 0px; text-transform: none; word-spacing: 0px; text-decoration: none; font-size: 15px;&quot;&gt;Esperar 1 seg&lt;/b&gt;" style="rounded=1;whiteSpace=wrap;html=1;strokeColor=#d79b00;fillColor=#ffe6cc;" vertex="1" parent="WIyWlLk6GJQsqaUBKTNV-1">
          <mxGeometry x="540" y="300" width="120" height="60" as="geometry" />
        </mxCell>
        <mxCell id="363ylHZ75aGxsUqMFSSx-50" style="edgeStyle=orthogonalEdgeStyle;rounded=0;orthogonalLoop=1;jettySize=auto;html=1;exitX=1;exitY=0.5;exitDx=0;exitDy=0;entryX=0;entryY=0.5;entryDx=0;entryDy=0;" edge="1" parent="WIyWlLk6GJQsqaUBKTNV-1" source="363ylHZ75aGxsUqMFSSx-31" target="363ylHZ75aGxsUqMFSSx-27">
          <mxGeometry relative="1" as="geometry" />
        </mxCell>
        <mxCell id="363ylHZ75aGxsUqMFSSx-31" value="&lt;b style=&quot;color: rgb(0 , 0 , 0) ; font-family: &amp;#34;helvetica&amp;#34; ; font-size: 12px ; font-style: normal ; letter-spacing: normal ; text-align: center ; text-indent: 0px ; text-transform: none ; word-spacing: 0px ; text-decoration: none&quot;&gt;&lt;font style=&quot;font-size: 16px&quot;&gt;Prender led B3&lt;/font&gt;&lt;/b&gt;" style="rounded=1;whiteSpace=wrap;html=1;strokeColor=#d79b00;fillColor=#ffe6cc;" vertex="1" parent="WIyWlLk6GJQsqaUBKTNV-1">
          <mxGeometry x="340" y="410" width="120" height="60" as="geometry" />
        </mxCell>
        <mxCell id="363ylHZ75aGxsUqMFSSx-59" style="edgeStyle=orthogonalEdgeStyle;rounded=0;orthogonalLoop=1;jettySize=auto;html=1;exitX=1;exitY=0.5;exitDx=0;exitDy=0;entryX=0;entryY=0.5;entryDx=0;entryDy=0;" edge="1" parent="WIyWlLk6GJQsqaUBKTNV-1" source="363ylHZ75aGxsUqMFSSx-32" target="363ylHZ75aGxsUqMFSSx-37">
          <mxGeometry relative="1" as="geometry" />
        </mxCell>
        <mxCell id="363ylHZ75aGxsUqMFSSx-32" value="&lt;b style=&quot;color: rgb(0 , 0 , 0) ; font-family: &amp;#34;helvetica&amp;#34; ; font-size: 12px ; font-style: normal ; letter-spacing: normal ; text-align: center ; text-indent: 0px ; text-transform: none ; word-spacing: 0px ; text-decoration: none&quot;&gt;&lt;font style=&quot;font-size: 16px&quot;&gt;Prender led A1&lt;/font&gt;&lt;/b&gt;" style="rounded=1;whiteSpace=wrap;html=1;strokeColor=#d79b00;fillColor=#ffe6cc;" vertex="1" parent="WIyWlLk6GJQsqaUBKTNV-1">
          <mxGeometry x="340" y="770" width="120" height="60" as="geometry" />
        </mxCell>
        <mxCell id="363ylHZ75aGxsUqMFSSx-53" style="edgeStyle=orthogonalEdgeStyle;rounded=0;orthogonalLoop=1;jettySize=auto;html=1;exitX=1;exitY=0.5;exitDx=0;exitDy=0;entryX=0;entryY=0.5;entryDx=0;entryDy=0;" edge="1" parent="WIyWlLk6GJQsqaUBKTNV-1" source="363ylHZ75aGxsUqMFSSx-33" target="363ylHZ75aGxsUqMFSSx-26">
          <mxGeometry relative="1" as="geometry" />
        </mxCell>
        <mxCell id="363ylHZ75aGxsUqMFSSx-33" value="&lt;b style=&quot;color: rgb(0 , 0 , 0) ; font-family: &amp;#34;helvetica&amp;#34; ; font-size: 12px ; font-style: normal ; letter-spacing: normal ; text-align: center ; text-indent: 0px ; text-transform: none ; word-spacing: 0px ; text-decoration: none&quot;&gt;&lt;font style=&quot;font-size: 16px&quot;&gt;Prender led B2&lt;/font&gt;&lt;/b&gt;" style="rounded=1;whiteSpace=wrap;html=1;strokeColor=#d79b00;fillColor=#ffe6cc;" vertex="1" parent="WIyWlLk6GJQsqaUBKTNV-1">
          <mxGeometry x="340" y="520" width="120" height="60" as="geometry" />
        </mxCell>
        <mxCell id="363ylHZ75aGxsUqMFSSx-47" style="edgeStyle=orthogonalEdgeStyle;rounded=0;orthogonalLoop=1;jettySize=auto;html=1;exitX=1;exitY=0.5;exitDx=0;exitDy=0;entryX=0;entryY=0.5;entryDx=0;entryDy=0;" edge="1" parent="WIyWlLk6GJQsqaUBKTNV-1" source="363ylHZ75aGxsUqMFSSx-34" target="363ylHZ75aGxsUqMFSSx-30">
          <mxGeometry relative="1" as="geometry" />
        </mxCell>
        <mxCell id="363ylHZ75aGxsUqMFSSx-34" value="&lt;b&gt;&lt;font style=&quot;font-size: 16px&quot;&gt;Prender led B4&lt;/font&gt;&lt;/b&gt;" style="rounded=1;whiteSpace=wrap;html=1;strokeColor=#d79b00;fillColor=#ffe6cc;" vertex="1" parent="WIyWlLk6GJQsqaUBKTNV-1">
          <mxGeometry x="340" y="300" width="120" height="60" as="geometry" />
        </mxCell>
        <mxCell id="363ylHZ75aGxsUqMFSSx-68" style="edgeStyle=orthogonalEdgeStyle;rounded=0;orthogonalLoop=1;jettySize=auto;html=1;exitX=1;exitY=0.5;exitDx=0;exitDy=0;entryX=0;entryY=0.5;entryDx=0;entryDy=0;" edge="1" parent="WIyWlLk6GJQsqaUBKTNV-1" source="363ylHZ75aGxsUqMFSSx-35" target="363ylHZ75aGxsUqMFSSx-39">
          <mxGeometry relative="1" as="geometry" />
        </mxCell>
        <mxCell id="363ylHZ75aGxsUqMFSSx-35" value="&lt;b style=&quot;color: rgb(0 , 0 , 0) ; font-family: &amp;#34;helvetica&amp;#34; ; font-size: 12px ; font-style: normal ; letter-spacing: normal ; text-align: center ; text-indent: 0px ; text-transform: none ; word-spacing: 0px ; text-decoration: none&quot;&gt;&lt;font style=&quot;font-size: 16px&quot;&gt;Prender led A4&lt;/font&gt;&lt;/b&gt;" style="rounded=1;whiteSpace=wrap;html=1;strokeColor=#d79b00;fillColor=#ffe6cc;" vertex="1" parent="WIyWlLk6GJQsqaUBKTNV-1">
          <mxGeometry x="340" y="1110" width="120" height="60" as="geometry" />
        </mxCell>
        <mxCell id="363ylHZ75aGxsUqMFSSx-71" style="edgeStyle=orthogonalEdgeStyle;rounded=0;orthogonalLoop=1;jettySize=auto;html=1;exitX=1;exitY=0.5;exitDx=0;exitDy=0;entryX=0;entryY=0.5;entryDx=0;entryDy=0;" edge="1" parent="WIyWlLk6GJQsqaUBKTNV-1" source="363ylHZ75aGxsUqMFSSx-36" target="363ylHZ75aGxsUqMFSSx-41">
          <mxGeometry relative="1" as="geometry" />
        </mxCell>
        <mxCell id="363ylHZ75aGxsUqMFSSx-36" value="&lt;b style=&quot;color: rgb(0, 0, 0); font-family: helvetica; font-size: 12px; font-style: normal; letter-spacing: normal; text-align: center; text-indent: 0px; text-transform: none; word-spacing: 0px; text-decoration: none;&quot;&gt;&lt;font style=&quot;font-size: 16px&quot;&gt;Prender led A5&lt;/font&gt;&lt;/b&gt;" style="rounded=1;whiteSpace=wrap;html=1;strokeColor=#d79b00;fillColor=#ffe6cc;" vertex="1" parent="WIyWlLk6GJQsqaUBKTNV-1">
          <mxGeometry x="340" y="1220" width="120" height="60" as="geometry" />
        </mxCell>
        <mxCell id="363ylHZ75aGxsUqMFSSx-60" style="edgeStyle=orthogonalEdgeStyle;rounded=0;orthogonalLoop=1;jettySize=auto;html=1;exitX=0.5;exitY=1;exitDx=0;exitDy=0;entryX=0.5;entryY=0;entryDx=0;entryDy=0;" edge="1" parent="WIyWlLk6GJQsqaUBKTNV-1" source="363ylHZ75aGxsUqMFSSx-37" target="363ylHZ75aGxsUqMFSSx-9">
          <mxGeometry relative="1" as="geometry" />
        </mxCell>
        <mxCell id="363ylHZ75aGxsUqMFSSx-37" value="&lt;b style=&quot;color: rgb(0 , 0 , 0) ; font-family: &amp;#34;helvetica&amp;#34; ; font-style: normal ; letter-spacing: normal ; text-align: center ; text-indent: 0px ; text-transform: none ; word-spacing: 0px ; text-decoration: none ; font-size: 15px&quot;&gt;Esperar 1.2 seg&lt;/b&gt;" style="rounded=1;whiteSpace=wrap;html=1;strokeColor=#d79b00;fillColor=#ffe6cc;" vertex="1" parent="WIyWlLk6GJQsqaUBKTNV-1">
          <mxGeometry x="540" y="770" width="120" height="60" as="geometry" />
        </mxCell>
        <mxCell id="363ylHZ75aGxsUqMFSSx-65" style="edgeStyle=orthogonalEdgeStyle;rounded=0;orthogonalLoop=1;jettySize=auto;html=1;exitX=1;exitY=0.5;exitDx=0;exitDy=0;entryX=0;entryY=0.5;entryDx=0;entryDy=0;" edge="1" parent="WIyWlLk6GJQsqaUBKTNV-1" source="363ylHZ75aGxsUqMFSSx-38" target="363ylHZ75aGxsUqMFSSx-42">
          <mxGeometry relative="1" as="geometry" />
        </mxCell>
        <mxCell id="363ylHZ75aGxsUqMFSSx-38" value="&lt;b style=&quot;color: rgb(0 , 0 , 0) ; font-family: &amp;#34;helvetica&amp;#34; ; font-size: 12px ; font-style: normal ; letter-spacing: normal ; text-align: center ; text-indent: 0px ; text-transform: none ; word-spacing: 0px ; text-decoration: none&quot;&gt;&lt;font style=&quot;font-size: 16px&quot;&gt;Prender led A3&lt;/font&gt;&lt;/b&gt;" style="rounded=1;whiteSpace=wrap;html=1;strokeColor=#d79b00;fillColor=#ffe6cc;" vertex="1" parent="WIyWlLk6GJQsqaUBKTNV-1">
          <mxGeometry x="340" y="1000" width="120" height="60" as="geometry" />
        </mxCell>
        <mxCell id="363ylHZ75aGxsUqMFSSx-69" style="edgeStyle=orthogonalEdgeStyle;rounded=0;orthogonalLoop=1;jettySize=auto;html=1;exitX=0.5;exitY=1;exitDx=0;exitDy=0;" edge="1" parent="WIyWlLk6GJQsqaUBKTNV-1" source="363ylHZ75aGxsUqMFSSx-39">
          <mxGeometry relative="1" as="geometry">
            <mxPoint x="220" y="1220" as="targetPoint" />
          </mxGeometry>
        </mxCell>
        <mxCell id="363ylHZ75aGxsUqMFSSx-39" value="&lt;b style=&quot;font-family: &amp;#34;helvetica&amp;#34; ; font-size: 15px&quot;&gt;Esperar 1.2 seg&lt;/b&gt;" style="rounded=1;whiteSpace=wrap;html=1;strokeColor=#d79b00;fillColor=#ffe6cc;" vertex="1" parent="WIyWlLk6GJQsqaUBKTNV-1">
          <mxGeometry x="540" y="1110" width="120" height="60" as="geometry" />
        </mxCell>
        <mxCell id="363ylHZ75aGxsUqMFSSx-57" style="edgeStyle=orthogonalEdgeStyle;rounded=0;orthogonalLoop=1;jettySize=auto;html=1;exitX=0.5;exitY=1;exitDx=0;exitDy=0;entryX=0.5;entryY=0;entryDx=0;entryDy=0;" edge="1" parent="WIyWlLk6GJQsqaUBKTNV-1" source="363ylHZ75aGxsUqMFSSx-40" target="363ylHZ75aGxsUqMFSSx-7">
          <mxGeometry relative="1" as="geometry" />
        </mxCell>
        <mxCell id="363ylHZ75aGxsUqMFSSx-40" value="&lt;b style=&quot;color: rgb(0, 0, 0); font-family: helvetica; font-style: normal; letter-spacing: normal; text-align: center; text-indent: 0px; text-transform: none; word-spacing: 0px; text-decoration: none; font-size: 15px;&quot;&gt;Esperar 1 seg&lt;/b&gt;" style="rounded=1;whiteSpace=wrap;html=1;strokeColor=#d79b00;fillColor=#ffe6cc;" vertex="1" parent="WIyWlLk6GJQsqaUBKTNV-1">
          <mxGeometry x="540" y="640" width="120" height="60" as="geometry" />
        </mxCell>
        <mxCell id="363ylHZ75aGxsUqMFSSx-74" style="edgeStyle=orthogonalEdgeStyle;rounded=0;orthogonalLoop=1;jettySize=auto;html=1;exitX=0.5;exitY=1;exitDx=0;exitDy=0;" edge="1" parent="WIyWlLk6GJQsqaUBKTNV-1" source="363ylHZ75aGxsUqMFSSx-41">
          <mxGeometry relative="1" as="geometry">
            <mxPoint x="220" y="1320" as="targetPoint" />
          </mxGeometry>
        </mxCell>
        <mxCell id="363ylHZ75aGxsUqMFSSx-41" value="&lt;b style=&quot;font-family: &amp;#34;helvetica&amp;#34; ; font-size: 15px&quot;&gt;Esperar 1.2 seg&lt;/b&gt;" style="rounded=1;whiteSpace=wrap;html=1;strokeColor=#d79b00;fillColor=#ffe6cc;" vertex="1" parent="WIyWlLk6GJQsqaUBKTNV-1">
          <mxGeometry x="540" y="1220" width="120" height="60" as="geometry" />
        </mxCell>
        <mxCell id="363ylHZ75aGxsUqMFSSx-66" style="edgeStyle=orthogonalEdgeStyle;rounded=0;orthogonalLoop=1;jettySize=auto;html=1;exitX=0.5;exitY=1;exitDx=0;exitDy=0;" edge="1" parent="WIyWlLk6GJQsqaUBKTNV-1" source="363ylHZ75aGxsUqMFSSx-42">
          <mxGeometry relative="1" as="geometry">
            <mxPoint x="220" y="1110" as="targetPoint" />
          </mxGeometry>
        </mxCell>
        <mxCell id="363ylHZ75aGxsUqMFSSx-42" value="&lt;b style=&quot;font-family: &amp;#34;helvetica&amp;#34; ; font-size: 15px&quot;&gt;Esperar 1.2 seg&lt;/b&gt;" style="rounded=1;whiteSpace=wrap;html=1;strokeColor=#d79b00;fillColor=#ffe6cc;" vertex="1" parent="WIyWlLk6GJQsqaUBKTNV-1">
          <mxGeometry x="540" y="1000" width="120" height="60" as="geometry" />
        </mxCell>
        <mxCell id="363ylHZ75aGxsUqMFSSx-63" style="edgeStyle=orthogonalEdgeStyle;rounded=0;orthogonalLoop=1;jettySize=auto;html=1;exitX=0.5;exitY=1;exitDx=0;exitDy=0;" edge="1" parent="WIyWlLk6GJQsqaUBKTNV-1" source="363ylHZ75aGxsUqMFSSx-43">
          <mxGeometry relative="1" as="geometry">
            <mxPoint x="220" y="1000" as="targetPoint" />
          </mxGeometry>
        </mxCell>
        <mxCell id="363ylHZ75aGxsUqMFSSx-43" value="&lt;b style=&quot;font-family: &amp;#34;helvetica&amp;#34; ; font-size: 15px&quot;&gt;Esperar 1.2 seg&lt;/b&gt;" style="rounded=1;whiteSpace=wrap;html=1;strokeColor=#d79b00;fillColor=#ffe6cc;" vertex="1" parent="WIyWlLk6GJQsqaUBKTNV-1">
          <mxGeometry x="540" y="890" width="120" height="60" as="geometry" />
        </mxCell>
        <mxCell id="363ylHZ75aGxsUqMFSSx-78" style="edgeStyle=orthogonalEdgeStyle;rounded=0;orthogonalLoop=1;jettySize=auto;html=1;exitX=0.5;exitY=1;exitDx=0;exitDy=0;entryX=0.5;entryY=0;entryDx=0;entryDy=0;" edge="1" parent="WIyWlLk6GJQsqaUBKTNV-1" source="363ylHZ75aGxsUqMFSSx-75" target="363ylHZ75aGxsUqMFSSx-1">
          <mxGeometry relative="1" as="geometry" />
        </mxCell>
        <mxCell id="363ylHZ75aGxsUqMFSSx-75" value="&lt;b&gt;&lt;font style=&quot;font-size: 26px&quot;&gt;loop&lt;/font&gt;&lt;/b&gt;" style="rounded=1;whiteSpace=wrap;html=1;strokeColor=#d79b00;fillColor=#ffe6cc;" vertex="1" parent="WIyWlLk6GJQsqaUBKTNV-1">
          <mxGeometry x="150" y="100" width="120" height="60" as="geometry" />
        </mxCell>
        <mxCell id="363ylHZ75aGxsUqMFSSx-79" value="" style="endArrow=classic;html=1;entryX=0;entryY=0.5;entryDx=0;entryDy=0;" edge="1" parent="WIyWlLk6GJQsqaUBKTNV-1" target="363ylHZ75aGxsUqMFSSx-75">
          <mxGeometry width="50" height="50" relative="1" as="geometry">
            <mxPoint x="220" y="1320" as="sourcePoint" />
            <mxPoint x="110" y="140" as="targetPoint" />
            <Array as="points">
              <mxPoint x="120" y="1320" />
              <mxPoint x="120" y="130" />
            </Array>
          </mxGeometry>
        </mxCell>
      </root>
    </mxGraphModel>
  </diagram>
</mxfile>
